<svg xmlns="http://www.w3.org/2000/svg" id="Layer_2" data-name="Layer 2" viewBox="0 0 911.37 234.02"><defs><style> .cls-1 { fill: #38719b; } .cls-1, .cls-2, .cls-3 { stroke-width: 0px; } .cls-2 { fill: #c82269; } .cls-3 { fill: #ee6e4a; } </style></defs><g id="Layer_1-2" data-name="Layer 1"><g><g><circle class="cls-3" cx="190.87" cy="24.51" r="24.51"></circle><path class="cls-1" d="m74.75,154.9l-22.7,37.86c-2.08,3.46-3.45,7.16-4.15,10.91-.05-.07-.09-.15-.14-.22L3.57,131.35c-2.42-3.94-3.57-8.3-3.57-12.61,0-8.14,4.11-16.09,11.55-20.65,11.39-6.98,26.29-3.41,33.27,7.98l29.93,48.83Z"></path><path class="cls-2" d="m198.88,59.44l-97.62,162.82c-6.87,11.46-21.73,15.18-33.19,8.31s-15.17-21.73-8.3-33.19L156.78,35.57c4.67,14.38,18.17,24.77,34.09,24.77,2.76,0,5.44-.31,8.01-.9Z"></path></g><rect class="cls-1" x="561.85" y="55.4" width="22.43" height="22.43"></rect><rect class="cls-1" x="561.85" y="96.94" width="22.43" height="84"></rect><polygon class="cls-1" points="314.27 96.94 285.22 181.02 256.14 181.02 227.08 96.94 251.21 96.94 270.68 153.27 290.15 96.94 314.27 96.94"></polygon><path class="cls-1" d="m546.62,163.41v17.53c-6.89,2.04-17.28,2.13-17.28,2.13-32.51,0-30.08-26.13-30.08-26.13v-43.41h-14.62v-16.59h14.62v-23.53h22.42v23.53h23.66v16.59h-23.66v45.71s-.68,6.21,10.9,6.21,14.04-2.04,14.04-2.04Z"></path><path class="cls-1" d="m759.9,96.02v58.53s-1.62,28.69-37.54,28.69-39.27-28.69-39.27-28.69v-58.53h22.42v58.53s1.88,11.41,15.75,11.41,16.21-11.41,16.21-11.41v-58.53h22.43Z"></path><path class="cls-1" d="m911.37,122.41v58.53h-22.43v-58.53s-1.98-10.24-12.62-10.24-19.4,10.24-19.4,10.24v58.53h-22.43v-58.13s.01-.15.01-.4c.02-1.97-.58-10.41-11.71-10.41-12.6,0-20,10.41-20,10.41v58.53h-22.43v-84.92h17.92l1.87,12.24s10.89-13.28,28.77-13.28,23.49,15.15,23.49,15.15c0,0,9.27-15.15,29.95-15.15s29.01,17.15,29.01,27.43Z"></path><path class="cls-1" d="m834.5,122.41c0,.25-.01.4-.01.4v-.4h.01Z"></path><path class="cls-1" d="m362.23,94.81c-40.08,0-40.21,45.06-40.21,45.06,0,0-3.06,43.41,44.68,43.41,0,0,20.94-1.28,28.86-4.85v-17.62s-5.05,4.85-27.55,4.85c-18.6,0-23.3-8.39-24.37-20.76h54.71v-1.58s3.97-48.51-36.12-48.51Zm-17.88,33.49s2.18-17.15,17.12-17.15,15.31,17.15,15.31,17.15h-32.43Z"></path><path class="cls-1" d="m434.36,139.63c0,23.51,13.45,26.74,23.32,26.74s19.74-3.23,19.74-3.23v16.34s-10.72,4.38-21.1,4.38-42.96-2.95-43.73-44.23c.77-41.28,33.46-44.23,43.73-44.23s21.1,4.38,21.1,4.38v16.34s-9.87-3.23-19.74-3.23-23.32,3.23-23.32,26.74Z"></path><path class="cls-1" d="m623.04,139.63c0,23.51,13.45,26.74,23.32,26.74s19.74-3.23,19.74-3.23v16.34s-10.72,4.38-21.1,4.38-42.96-2.95-43.73-44.23c.77-41.28,33.46-44.23,43.73-44.23s21.1,4.38,21.1,4.38v16.34s-9.87-3.23-19.74-3.23-23.32,3.23-23.32,26.74Z"></path></g></g></svg>